<?xml version="1.0" encoding="utf-8"?>
<!-- Generator: Adobe Illustrator 25.2.0, SVG Export Plug-In . SVG Version: 6.00 Build 0)  -->
<svg version="1.1" id="Layer_1" xmlns="http://www.w3.org/2000/svg" xmlns:xlink="http://www.w3.org/1999/xlink" x="0px" y="0px"
	 viewBox="0 0 498 210" style="enable-background:new 0 0 498 210;" xml:space="preserve">
<style type="text/css">
	.st0{fill:#FFFFFF;}
	.st1{fill:#264294;}
	.st2{fill:#7E1710;}
</style>
<path class="st0" d="M177.3-56c-4,6.4-9.7,11.5-16.5,14.7c-7.3,3.7-16.1,5.5-26.4,5.5c-15.6,0-28.4-3.8-38.5-11.4
	S80.3-65.3,79.4-78.9h35.7c0.5,5.2,2.4,9.3,5.6,12.4c3.3,3.1,7.7,4.7,12.3,4.5c4.3,0,7.7-1.2,10.2-3.5c2.5-2.5,3.9-5.9,3.7-9.4
	c0.1-3.3-1.1-6.5-3.4-8.8c-2.4-2.5-5.3-4.4-8.5-5.8c-3.4-1.5-8.1-3.3-14.1-5.4c-7.4-2.4-14.5-5.3-21.5-8.7
	c-5.7-3-10.7-7.3-14.3-12.5c-4-5.6-6-12.8-6-21.7c0-8.2,2.1-15.4,6.3-21.4c4.4-6.2,10.4-10.9,17.4-13.8c8.1-3.3,16.7-5,25.4-4.8
	c15.4,0,27.7,3.7,36.8,11s14.2,17.4,15.4,30.2H144c-0.4-4.1-2.2-7.9-5-10.9c-2.7-2.7-6.3-4-10.9-4c-3.5-0.2-6.8,1-9.5,3.1
	c-2.4,2.1-3.6,5.2-3.6,9.2c-0.1,3.1,1.1,6.1,3.2,8.3c2.3,2.4,5.1,4.3,8.2,5.6c3.3,1.4,8,3.3,14.1,5.5c7.5,2.4,14.8,5.4,21.8,8.9
	c5.8,3.1,10.8,7.5,14.5,12.8c4.1,5.6,6.1,12.9,6.1,22C182.9-69.1,181-62.1,177.3-56z"/>
<path class="st0" d="M294.1-165.2c7.3,4.8,13.2,11.5,16.9,19.4c4.1,8.4,6.2,18.4,6.2,29.9c0,11.4-2.1,21.3-6.2,29.8
	s-9.8,15-16.9,19.5c-7.3,4.5-15.7,6.9-24.3,6.8c-8.4,0-15.6-1.9-21.6-5.7c-5.9-3.7-10.5-9.1-13.2-15.5v72h-33.6v-161.6H235v19.8
	c2.6-6.4,7.3-11.8,13.2-15.5c6-3.8,13.2-5.7,21.6-5.7C278.4-172.1,286.9-169.7,294.1-165.2z M241.7-135.4
	c-4.5,4.8-6.8,11.3-6.8,19.5c0,8.1,2.3,14.6,6.8,19.4s10.3,7.3,17.4,7.3c7.2,0,13-2.4,17.4-7.1s6.6-11.2,6.6-19.6
	s-2.2-14.9-6.6-19.6s-10.2-7.1-17.4-7.1C252-142.5,246.2-140.1,241.7-135.4z"/>
<path class="st0" d="M337-214c3.7-3.3,8.5-5,14.5-5s10.9,1.7,14.5,5c3.6,3.2,5.6,7.8,5.5,12.6c0.1,4.8-1.9,9.3-5.5,12.5
	c-3.7,3.3-8.5,5-14.5,5s-10.9-1.7-14.5-5c-3.6-3.1-5.6-7.7-5.5-12.5C331.4-206.2,333.4-210.8,337-214z M368.3-170.6v109.4h-33.6
	v-109.4H368.3L368.3-170.6z"/>
<path class="st0" d="M445.2-185.5c-5.5,0-9.5,1.2-12,3.5s-3.9,6.1-4.1,11.4H449v28.2h-19.8v81.2h-33.6v-81.2h-13.2v-28.2h13.2v-1.2
	c0-13.6,4-24.1,11.9-31.5s19.4-11.1,34.5-11.1c3.1,0,5.5,0.1,7.1,0.2v28.8L445.2-185.5z"/>
<path class="st0" d="M489-170.6l26.3,67.1l24.5-67.1H577L508.7-9h-36.9l25.7-56.3l-46-105.3H489L489-170.6z"/>
<g>
	<path class="st0" d="M5.3,248.9h22.1c5.2,0,9.1,1.3,11.7,3.8s4.9,8,6.6,16.6c1.8,8.5,2.7,19.1,2.7,31.8c0,22.2-3.1,36.4-9.2,42.7
		c7.3,7.9,11,24.2,11,48.7c0,12.9-1,23.8-3,32.6c-2,8.9-4.4,14.8-7.4,17.7c-2.9,3-7.1,4.4-12.4,4.4H5.3V248.9z M18.9,328.9h4.6
		c4.6,0,7.5-2.5,8.6-7.6c1.2-5,1.8-10.8,1.8-17.3c0-6-0.6-11.4-1.8-16.1c-1.2-4.7-3.7-7-7.6-7h-5.6V328.9z M18.9,413.2h7
		c6.5,0,9.8-8.6,9.8-25.9c0-9.6-0.8-16.4-2.4-20.3c-1.6-3.9-4.1-5.9-7.4-5.9h-7C18.9,361.1,18.9,413.2,18.9,413.2z"/>
	<path class="st0" d="M59.3,248.9h15.8l16.6,123.3V248.9h11v198.4H90L70.3,303.6v143.6h-11V248.9z"/>
	<path class="st0" d="M143.9,248.9h14.3l18.5,198.4h-14.5l-3.2-41h-18.2l-3.2,41h-13.1L143.9,248.9z M156.3,372.3l-6.5-81.3
		l-6.3,81.3H156.3z"/>
	<path class="st0" d="M204.3,248.9h13.1v198.4H205V423c-2,17.5-5.6,26.3-10.9,26.3c-5.1,0-9-6.9-11.5-20.6
		c-2.5-13.8-3.8-31.8-3.8-54.2c0-25.5,1.4-44.5,4.3-57.1c2.9-12.6,6.8-18.9,11.6-18.9c4.5,0,7.6,5.2,9.5,15.7L204.3,248.9
		L204.3,248.9z M204.3,361.9c0-14.4-0.5-24.1-1.5-29s-2.5-7.3-4.4-7.3c-2.3,0-3.8,3.4-4.6,10.2c-0.8,6.8-1.2,20.8-1.2,42.1
		c0,15.9,0.4,27,1.3,33.4c0.9,6.4,2.3,9.6,4.4,9.6c1.7,0,3.1-2.2,4.3-6.5c1.1-4.3,1.7-13.1,1.7-26.5V361.9z"/>
	<path class="st0" d="M221.3,300.5h12.9l6.6,86.5l6.7-86.5h11.1l-13.3,146.7h-10.6L221.3,300.5z"/>
	<path class="st0" d="M298.8,373.9c0,51-6.5,76.5-19.4,76.5c-13,0-19.5-25.5-19.5-76.5c0-50.9,6.5-76.3,19.5-76.3
		C292.3,297.5,298.8,323,298.8,373.9z M285,373.9c0-18.7-0.4-31.4-1.3-38c-0.8-6.6-2.3-9.9-4.4-9.9c-2,0-3.5,3.1-4.3,9.4
		c-0.9,6.3-1.3,19.1-1.3,38.5c0,18,0.4,30.4,1.1,37.4c0.8,7,2.3,10.5,4.5,10.5s3.6-3.5,4.4-10.4S285,392,285,373.9z"/>
	<path class="st0" d="M342.4,354.5L330,356c-0.2-9-0.7-15.8-1.4-20.4c-0.8-4.6-2-6.9-3.8-6.9c-4.5,0-6.7,14.4-6.7,43.3
		c0,16.8,0.5,28.5,1.6,35.2c1.1,6.7,2.7,10,4.9,10c3.3,0,5.2-9.1,5.5-27.2l12.4,2.5c-1.1,38.6-7.4,57.8-18.7,57.8
		c-6.2,0-10.9-6.4-14.1-19.1c-3.3-12.7-4.9-31.7-4.9-56.9c0-25,1.7-44,5.1-57.1c3.4-13.1,8.2-19.6,14.4-19.6
		C335.3,297.5,341.4,316.5,342.4,354.5z"/>
	<path class="st0" d="M362.4,347.1l-12.7-3.8c0.6-14.7,2.6-26.1,6.1-34s7.9-11.9,13.2-11.9c4.5,0,8.1,2.6,10.8,7.9
		c2.7,5.3,4.4,11.4,5.1,18.4s1.1,17.8,1.1,32.4v58.6c0,18.2,0.3,29.1,0.8,32.6h-12.4c-0.4-4-0.7-11.5-0.7-22.5
		c-2.9,17.1-7.3,25.6-13.1,25.6c-3.7,0-6.7-3.4-9.1-10.2c-2.4-6.8-3.5-16.8-3.5-29.9c0-16.4,1.8-29,5.3-38s10-14.3,19.3-16.1v-5.5
		c0-9.8-0.3-16.6-1-20.3c-0.6-3.8-1.9-5.7-3.8-5.7C364.6,324.6,362.7,332.1,362.4,347.1z M372.7,377.2c-3.9,1.4-6.7,4-8.3,7.9
		c-1.7,3.9-2.5,10.5-2.5,19.8c0,12.4,1.5,18.5,4.5,18.5c1.6,0,3.1-2.8,4.4-8.3c1.3-5.6,2-15.8,2-30.6v-7.3H372.7z"/>
	<path class="st0" d="M397.9,255.4l13-1.3v46.4h8.8v32.3h-8.8v53.9c0,10,0.1,16.4,0.2,19.4s0.6,5.4,1.4,7.4s2.2,3,4.1,3
		c1,0,2.3-0.1,3.8-0.3v31.1c-3,2-5.7,3.1-8.2,3.1c-4,0-7.1-2.4-9.3-7.1c-2.1-4.7-3.5-10.7-4.1-17.9c-0.6-7.2-0.9-18.6-0.9-34.2
		v-58.5h-5.3v-32.2h5.3V255.4z"/>
	<path class="st0" d="M462.5,380.7h-25.1v8.1c0,13.1,0.6,21.9,1.7,26.4c1.2,4.4,2.7,6.7,4.6,6.7c4.1,0,6.3-8.3,6.8-25l11.9,2.3
		c-2.1,34.1-8.4,51.2-19,51.2c-6.5,0-11.4-6.7-14.8-20.2s-5.1-31.5-5.1-54.1c0-25.5,1.8-44.9,5.4-58.4c3.6-13.4,8.4-20.1,14.4-20.1
		c5.4,0,10,5.9,13.6,17.8C460.7,327.2,462.5,349,462.5,380.7z M449.9,357c0-1.7,0-3.1,0-4.1c0-18.9-2.1-28.3-6.2-28.3
		s-6.2,10.8-6.2,32.4H449.9z"/>
	<path class="st0" d="M501.9,335.8l-9.5,8.7c-1.3-13.3-3.6-19.9-7-19.9c-2.8,0-4.2,4.3-4.2,12.8c0,4.8,0.5,8.5,1.6,11
		c1,2.5,3.2,5.5,6.4,9c3.7,4,6.4,7.5,8.1,10.5s3.1,7.5,4.3,13.6c1.2,6.1,1.8,13,1.8,20.9c0,13.6-1.6,25-4.8,34.2
		c-3.2,9.2-7.6,13.8-13.4,13.8c-10.8,0-16.7-14.6-17.9-43.7l10.6-5.2c0.9,14.6,3.4,21.9,7.5,21.9c3.5,0,5.3-4.6,5.3-13.7
		c0-4.8-0.5-8.5-1.6-11c-1-2.5-3.1-5.2-6.1-8.1c-5.5-5.4-9.3-12-11.3-19.6c-2.1-7.7-3.1-16.5-3.1-26.6c0-14.1,1.6-25.5,4.9-34
		c3.2-8.5,7.3-12.8,12.2-12.8C494.2,297.4,499.6,310.2,501.9,335.8z"/>
</g>
<rect x="546" y="-30" style="fill:none;" width="83" height="0"/>
<g>
	<path class="st1" d="M26.3,206.9H0v-49.3h4V50.3H0V1h28.4c5.6,0,9.9,1.4,12.9,4.3c3,3,5.4,8.8,7.1,17.6c1.7,9,2.6,19.4,2.6,31.4
		c0,11.6-0.8,20.9-2.4,27.8c-1.7,7.1-3.7,12-6.1,14.8c3.3,4.3,5.8,11.1,7.6,20.1c1.8,9.3,2.7,19.7,2.7,31.2c0,13.8-1,25.6-3,35.2
		c-2,9.6-4.8,15.8-8.3,18.8C38,205.3,32.9,206.9,26.3,206.9z M22,46.1v37.6h4c2.7,0,4.5-1.7,5.3-5.2c0.8-3.5,1.2-8,1.2-13.6
		c0-4.8-0.4-9.2-1.1-13s-2.8-5.8-6-5.8H22z M22,121.2v40.5h4c2.6,0,4.4-1.5,5.6-4.4c1.1-3,1.7-8.2,1.7-15.7c0-7-0.5-12.2-1.5-15.5
		c-1-3.3-2.9-4.9-5.8-4.9H22z"/>
	<path class="st2" d="M76.7,206.9H57.7v-49.3h4.1V50.3h-4.1V1h22l16.9,107.6V50.3h-3.8V1h18.7v49.3h-4v159.2H92.2L72.6,85.1v72.5
		h4.1V206.9z"/>
	<path class="st0" d="M150.2,206.9h-18.4v-49.3h3.5L144,50.3h-3.7V1h33.4v49.3h-3.7l8.9,107.3h3.4v49.3H158v-45.1h4.1l-1.8-25.9
		h-11.9l-2,25.9h3.8V206.9z M154.5,53.2l-4.4,57h8.3L154.5,53.2z"/>
	<path class="st0" d="M235.4,161.7v45.1h-21v-9.6c-3.1,8.2-6.7,12.3-10.8,12.3c-4.6,0-8.6-6.2-12.1-18.5c-3.5-12.3-5.3-30-5.3-53
		c0-24.8,1.6-43.9,4.9-57.4c3.3-13.3,7.6-20,13.1-20c4,0,7.4,3.9,10.3,11.8V46.1h-4.1V1h20.9v160.7H235.4z M214.5,134.5
		c0-9-0.5-16.5-1.4-22.5c-0.9-5.9-2.3-8.9-4.2-8.9c-3.8,0-5.7,10.9-5.7,32.7c0,9,0.5,16.4,1.4,22.2c0.9,5.9,2.3,8.9,4.2,8.9
		c1.7,0,3.1-2.6,4.1-7.8C214,153.8,214.5,145.6,214.5,134.5z"/>
	<path class="st0" d="M266.5,208.6h-13.5l-12.1-100.2h-3.2V63.3h22.9v45.1h-3.6l5.4,54.6l5.7-54.6h-3.2V63.3h16.8v45.1h-3.1
		L266.5,208.6z"/>
	<path class="st0" d="M284.3,134.3c0-21.1,2-38.9,6-53.4s9.4-21.8,16.2-21.8c6.9,0,12.4,7,16.7,21c4.3,14,6.4,32.3,6.4,54.8
		c0,21.7-2,39.8-6.1,54.3c-4.1,14.5-9.5,21.8-16.2,21.8c-7.3,0-12.9-7.3-17-21.8C286.4,174.8,284.3,156.5,284.3,134.3z M301.3,134.6
		c0,22.9,1.8,34.3,5.5,34.3c3.9,0,5.9-11.5,5.9-34.6c0-10.6-0.5-18.7-1.4-24.6c-1-5.8-2.4-8.7-4.1-8.7c-1.8,0-3.2,2.9-4.2,8.6
		C301.9,115.3,301.3,123.7,301.3,134.6z"/>
	<path class="st0" d="M364.9,148l12.5,12.4c-1,16-3.3,28.4-6.7,37.3c-3.5,8.9-7.8,13.3-13,13.3c-6.8,0-12.2-6.8-16.1-20.4
		c-3.9-13.6-5.9-31.9-5.9-54.8c0-22,1.8-40.1,5.5-54.2c3.6-14,8.2-21,13.7-21c4.6,0,8.2,4.1,10.7,12.3v-9.6h10.3v61.3h-10.3
		c-1.3-16.4-3.4-24.6-6.4-24.6c-2,0-3.6,3.5-4.7,10.5c-1.1,7.2-1.7,15.9-1.7,26.2c0,11.1,0.6,19.9,1.8,26.3c1.2,6.4,2.7,9.6,4.6,9.6
		C362.3,172.7,364.2,164.4,364.9,148z"/>
	<path class="st0" d="M408.6,154.5v44.1c-1.1,3.3-2.7,6.1-4.7,8.6c-2.2,2.6-4.3,3.8-6.3,3.8c-2.5,0-4.7-1.8-6.5-5.5
		c-1.8-3.7-3.2-8.8-4.2-15.1c-0.5-3.7-0.9-7-1.1-10c-0.2-3-0.4-6.4-0.5-10.1c-0.2-6.5-0.2-19.1-0.2-37.7v-24.1h-4.1V63.3h4.1V41.3
		l16.8-35.4v57.4h6.8v45.1h-6.8v27.8c0,9.1,0.2,15.1,0.6,18.2c0.4,3.1,1.1,4.6,2.3,4.6C405.7,159.1,407.1,157.5,408.6,154.5z"/>
	<path class="st0" d="M441.3,161.4l13.9,7.5c-0.6,6.4-1.5,12.2-2.6,17.2c-1.1,5.1-2.5,9.5-4.1,13.2c-3.2,7.7-7.1,11.5-11.6,11.5
		c-7.6,0-13.2-7-17-20.9c-3.8-13.8-5.7-31.9-5.7-54.3c0-21.9,1.9-40.2,5.6-54.8c3.7-14.6,8.8-21.9,15.1-21.9c6.1,0,11.1,6.9,15,20.7
		c3.8,13.7,5.8,34.6,6,62.6h-25.5c0.1,23.3,2,34.9,5.9,34.9C438.6,177.4,440.2,172.1,441.3,161.4z M430.6,123.8h9.5
		c0-3,0.1-4.6,0.1-5c0-7.8-0.4-14.3-1.3-19.4c-0.9-5-2.1-7.5-3.5-7.5c-1.5,0-2.7,2.8-3.5,8.3c-0.8,5.6-1.2,12.5-1.2,20.7
		C430.5,122,430.6,122.9,430.6,123.8z"/>
	<path class="st0" d="M473.3,208.6H463v-45.6h9.7c2.5,11.6,5.2,17.5,8.2,17.5c3,0,4.5-2.7,4.5-8.1c0-2.8-0.3-4.9-1-6.4
		c-0.7-1.6-2.4-3.9-5.3-7c-2.3-2.8-4.9-6-7.7-9.6c-2.4-3.1-4.3-6.9-5.7-11.5c-1.4-4.6-2.4-9.2-2.9-13.6c-0.5-4.4-0.8-10.3-0.8-17.5
		c0-15.9,1.3-27.6,3.8-35.1c2.5-7.4,5.7-11.1,9.6-11.1c4,0,7.4,3.4,10.1,10.1v-7.4h10.3V105h-9.5c-2.4-10-5.2-14.9-8.4-14.9
		c-2.6,0-3.8,3-3.8,9c0,2.9,0.4,4.7,1.1,5.6c0.6,0.9,2.8,3,6.4,6.4c4.1,3.8,7.3,7.7,9.7,11.5c2.3,3.8,4,8.9,5.2,15.2
		c1.1,6.3,1.7,14.1,1.7,23.2c0,16.6-1.4,28.8-4.2,36.7c-2.8,7.8-6.2,11.7-10.2,11.7c-4,0-7.5-3.3-10.3-9.8V208.6z"/>
</g>
<rect x="635" y="-3" style="fill:none;" width="0" height="5"/>
</svg>
