<?xml version="1.0" encoding="utf-8"?>
<!-- Generator: Adobe Illustrator 25.2.0, SVG Export Plug-In . SVG Version: 6.00 Build 0)  -->
<svg version="1.1" id="Layer_1" xmlns="http://www.w3.org/2000/svg" xmlns:xlink="http://www.w3.org/1999/xlink" x="0px" y="0px"
	 viewBox="0 0 498 210" style="enable-background:new 0 0 498 210;" xml:space="preserve">
<style type="text/css">
	.st0{fill:#FFFFFF;}
	.st1{fill:#0047D8;}
	.st2{fill:#D01518;}
</style>
<path class="st0" d="M177.3-56c-4,6.4-9.7,11.5-16.5,14.7c-7.3,3.7-16.1,5.5-26.4,5.5c-15.6,0-28.4-3.8-38.5-11.4
	S80.3-65.3,79.4-78.9h35.7c0.5,5.2,2.4,9.3,5.6,12.4c3.3,3.1,7.7,4.7,12.3,4.5c4.3,0,7.7-1.2,10.2-3.5c2.5-2.5,3.9-5.9,3.7-9.4
	c0.1-3.3-1.1-6.5-3.4-8.8c-2.4-2.5-5.3-4.4-8.5-5.8c-3.4-1.5-8.1-3.3-14.1-5.4c-7.4-2.4-14.5-5.3-21.5-8.7
	c-5.7-3-10.7-7.3-14.3-12.5c-4-5.6-6-12.8-6-21.7c0-8.2,2.1-15.4,6.3-21.4c4.4-6.2,10.4-10.9,17.4-13.8c8.1-3.3,16.7-5,25.4-4.8
	c15.4,0,27.7,3.7,36.8,11s14.2,17.4,15.4,30.2H144c-0.4-4.1-2.2-7.9-5-10.9c-2.7-2.7-6.3-4-10.9-4c-3.5-0.2-6.8,1-9.5,3.1
	c-2.4,2.1-3.6,5.2-3.6,9.2c-0.1,3.1,1.1,6.1,3.2,8.3c2.3,2.4,5.1,4.3,8.2,5.6c3.3,1.4,8,3.3,14.1,5.5c7.5,2.4,14.8,5.4,21.8,8.9
	c5.8,3.1,10.8,7.5,14.5,12.8c4.1,5.6,6.1,12.9,6.1,22C182.9-69.1,181-62.1,177.3-56z"/>
<path class="st0" d="M294.1-165.2c7.3,4.8,13.2,11.5,16.9,19.4c4.1,8.4,6.2,18.4,6.2,29.9c0,11.4-2.1,21.3-6.2,29.8
	s-9.8,15-16.9,19.5c-7.3,4.5-15.7,6.9-24.3,6.8c-8.4,0-15.6-1.9-21.6-5.7c-5.9-3.7-10.5-9.1-13.2-15.5v72h-33.6v-161.6H235v19.8
	c2.6-6.4,7.3-11.8,13.2-15.5c6-3.8,13.2-5.7,21.6-5.7C278.4-172.1,286.9-169.7,294.1-165.2z M241.7-135.4
	c-4.5,4.8-6.8,11.3-6.8,19.5c0,8.1,2.3,14.6,6.8,19.4s10.3,7.3,17.4,7.3c7.2,0,13-2.4,17.4-7.1s6.6-11.2,6.6-19.6
	s-2.2-14.9-6.6-19.6s-10.2-7.1-17.4-7.1C252-142.5,246.2-140.1,241.7-135.4z"/>
<path class="st0" d="M337-214c3.7-3.3,8.5-5,14.5-5s10.9,1.7,14.5,5c3.6,3.2,5.6,7.8,5.5,12.6c0.1,4.8-1.9,9.3-5.5,12.5
	c-3.7,3.3-8.5,5-14.5,5s-10.9-1.7-14.5-5c-3.6-3.1-5.6-7.7-5.5-12.5C331.4-206.2,333.4-210.8,337-214z M368.3-170.6v109.4h-33.6
	v-109.4H368.3L368.3-170.6z"/>
<path class="st0" d="M445.2-185.5c-5.5,0-9.5,1.2-12,3.5s-3.9,6.1-4.1,11.4H449v28.2h-19.8v81.2h-33.6v-81.2h-13.2v-28.2h13.2v-1.2
	c0-13.6,4-24.1,11.9-31.5s19.4-11.1,34.5-11.1c3.1,0,5.5,0.1,7.1,0.2v28.8L445.2-185.5z"/>
<path class="st0" d="M489-170.6l26.3,67.1l24.5-67.1H577L508.7-9h-36.9l25.7-56.3l-46-105.3H489L489-170.6z"/>
<path class="st1" d="M4.3,0h21.8c5.1,0,9,1.4,11.5,4c2.6,2.6,4.8,8.3,6.5,17.3c1.8,8.9,2.7,19.9,2.7,33.1c0,23.1-3.1,37.9-9.1,44.5
	c7.2,8.2,10.9,25.2,10.9,50.8c0,13.4-1,24.8-3,34c-2,9.3-4.3,15.4-7.3,18.4c-2.9,3.1-7,4.6-12.2,4.6H4.3V0z M17.7,83.4h4.5
	c4.5,0,7.4-2.6,8.5-7.9c1.2-5.2,1.8-11.3,1.8-18c0-6.3-0.6-11.9-1.8-16.8c-1.2-4.9-3.7-7.3-7.5-7.3h-5.5V83.4z M17.7,171.2h6.9
	c6.4,0,9.7-9,9.7-27c0-10-0.8-17.1-2.4-21.2c-1.6-4.1-4-6.1-7.3-6.1h-6.9C17.7,116.9,17.7,171.2,17.7,171.2z"/>
<path class="st2" d="M57.6,0h15.6l16.4,128.5V0h10.9v206.8H87.9L68.5,57v149.7H57.6V0z"/>
<path class="st0" d="M141.1,0h14.1l18.3,206.8h-14.3L156,164h-18l-3.2,42.7H122L141.1,0z M153.4,128.6l-6.4-84.7l-6.2,84.7H153.4z"
	/>
<path class="st0" d="M200.7,0h12.9v206.8h-12.2v-25.3c-2,18.2-5.5,27.4-10.8,27.4c-5,0-8.9-7.2-11.4-21.5
	c-2.5-14.4-3.8-33.1-3.8-56.5c0-26.6,1.4-46.4,4.2-59.5c2.9-13.1,6.7-19.7,11.5-19.7c4.4,0,7.5,5.4,9.4,16.4L200.7,0L200.7,0z
	 M200.7,117.8c0-15-0.5-25.1-1.5-30.2c-1-5.1-2.5-7.6-4.3-7.6c-2.3,0-3.8,3.5-4.5,10.6c-0.8,7.1-1.2,21.7-1.2,43.9
	c0,16.6,0.4,28.1,1.3,34.8c0.9,6.7,2.3,10,4.3,10c1.7,0,3.1-2.3,4.2-6.8c1.1-4.5,1.7-13.7,1.7-27.6V117.8z"/>
<path class="st0" d="M217.5,53.8h12.7l6.5,90.1l6.6-90.1h11l-13.1,152.9h-10.5L217.5,53.8z"/>
<path class="st0" d="M294,130.3c0,53.2-6.4,79.7-19.2,79.7c-12.8,0-19.2-26.6-19.2-79.7c0-53,6.4-79.5,19.2-79.5
	C287.6,50.7,294,77.2,294,130.3z M280.4,130.3c0-19.5-0.4-32.7-1.3-39.6c-0.8-6.9-2.3-10.3-4.3-10.3c-2,0-3.5,3.2-4.2,9.8
	c-0.9,6.6-1.3,19.9-1.3,40.1c0,18.8,0.4,31.7,1.1,39c0.8,7.3,2.3,10.9,4.4,10.9s3.6-3.6,4.3-10.8
	C279.9,162.2,280.4,149.1,280.4,130.3z"/>
<path class="st0" d="M337.1,110.1l-12.2,1.6c-0.2-9.4-0.7-16.5-1.4-21.3c-0.8-4.8-2-7.2-3.8-7.2c-4.4,0-6.6,15-6.6,45.1
	c0,17.5,0.5,29.7,1.6,36.7c1.1,7,2.7,10.4,4.8,10.4c3.3,0,5.1-9.5,5.4-28.3l12.2,2.6c-1.1,40.2-7.3,60.2-18.5,60.2
	c-6.1,0-10.8-6.7-13.9-19.9c-3.3-13.2-4.8-33-4.8-59.3c0-26.1,1.7-45.9,5-59.5s8.1-20.4,14.2-20.4
	C330.1,50.7,336.1,70.5,337.1,110.1z"/>
<path class="st0" d="M356.8,102.3l-12.5-4c0.6-15.3,2.6-27.2,6-35.4s7.8-12.4,13-12.4c4.4,0,8,2.7,10.7,8.2c2.7,5.5,4.3,11.9,5,19.2
	c0.7,7.3,1.1,18.6,1.1,33.8v61.1c0,19,0.3,30.3,0.8,34h-12.2c-0.4-4.2-0.7-12-0.7-23.4c-2.9,17.8-7.2,26.7-12.9,26.7
	c-3.7,0-6.6-3.5-9-10.6c-2.4-7.1-3.5-17.5-3.5-31.2c0-17.1,1.8-30.2,5.2-39.6s9.9-14.9,19.1-16.8v-5.7c0-10.2-0.3-17.3-1-21.2
	c-0.6-4-1.9-5.9-3.8-5.9C359,78.9,357.1,86.7,356.8,102.3z M367,133.7c-3.8,1.5-6.6,4.2-8.2,8.2c-1.7,4.1-2.5,10.9-2.5,20.6
	c0,12.9,1.5,19.3,4.4,19.3c1.6,0,3.1-2.9,4.3-8.7c1.3-5.8,2-16.5,2-31.9L367,133.7L367,133.7z"/>
<path class="st0" d="M391.9,6.8l12.8-1.4v48.4h8.7v33.7h-8.7v56.2c0,10.4,0.1,17.1,0.2,20.2c0.1,3.1,0.6,5.6,1.4,7.7s2.2,3.1,4,3.1
	c1,0,2.3-0.1,3.8-0.3v32.4c-3,2.1-5.6,3.2-8.1,3.2c-3.9,0-7-2.5-9.2-7.4c-2.1-4.9-3.5-11.2-4-18.7c-0.6-7.5-0.9-19.4-0.9-35.6v-61
	h-5.2V53.8h5.2V6.8z"/>
<path class="st0" d="M455.6,137.4h-24.8v8.4c0,13.7,0.6,22.8,1.7,27.5c1.2,4.6,2.7,7,4.5,7c4,0,6.2-8.7,6.7-26.1l11.7,2.4
	c-2.1,35.5-8.3,53.4-18.8,53.4c-6.4,0-11.3-7-14.6-21.1c-3.4-14.1-5-32.8-5-56.4c0-26.6,1.8-46.8,5.3-60.9
	c3.6-14,8.3-20.9,14.2-20.9c5.3,0,9.9,6.1,13.4,18.6C453.8,81.6,455.6,104.3,455.6,137.4z M443.2,112.7c0-1.8,0-3.2,0-4.3
	c0-19.7-2.1-29.5-6.1-29.5c-4,0-6.1,11.3-6.1,33.8H443.2z"/>
<path class="st0" d="M494.5,90.6l-9.4,9.1c-1.3-13.9-3.6-20.7-6.9-20.7c-2.8,0-4.1,4.5-4.1,13.3c0,5,0.5,8.9,1.6,11.5
	c1,2.6,3.2,5.7,6.3,9.4c3.7,4.2,6.3,7.8,8,10.9s3.1,7.8,4.2,14.2c1.2,6.4,1.8,13.5,1.8,21.8c0,14.2-1.6,26.1-4.7,35.6
	S483.8,210,478,210c-10.7,0-16.5-15.2-17.7-45.5l10.5-5.4c0.9,15.2,3.4,22.8,7.4,22.8c3.5,0,5.2-4.8,5.2-14.3c0-5-0.5-8.9-1.6-11.5
	c-1-2.6-3.1-5.4-6-8.4c-5.4-5.6-9.2-12.5-11.2-20.4c-2.1-8-3.1-17.2-3.1-27.7c0-14.7,1.6-26.6,4.8-35.4c3.2-8.9,7.2-13.3,12-13.3
	C486.9,50.5,492.2,63.9,494.5,90.6z"/>
<rect x="546" y="-30" style="fill:none;" width="83" height="0"/>
</svg>
