<?xml version="1.0" encoding="utf-8"?>
<!-- Generator: Adobe Illustrator 25.2.0, SVG Export Plug-In . SVG Version: 6.00 Build 0)  -->
<svg version="1.1" id="Layer_1" xmlns="http://www.w3.org/2000/svg" xmlns:xlink="http://www.w3.org/1999/xlink" x="0px" y="0px"
	 viewBox="0 0 498 210" style="enable-background:new 0 0 498 210;" xml:space="preserve">
<style type="text/css">
	.st0{fill:#FAFAFA;}
</style>
<g>
	<g>
		<path class="st0" d="M12.2,206.9V3.1h48.2c20.9,0,36.6,10.1,47,30.4S123,77.4,123,104c0,30.4-5.6,55.2-16.8,74.3
			c-11.2,19.1-25.7,28.6-43.5,28.6H12.2z M50.4,160h10c6.3,0,11.7-5,16-15.1c4.4-10,6.5-23.7,6.5-41c0-14.8-1.9-27.6-5.8-38.4
			s-9.5-16.1-16.8-16.1h-10V160z"/>
		<path class="st0" d="M244.9,3.1v203.7h-38.3v-79.3h-29.2v79.3h-38.3V3.1h38.3v74.9h29.2V3.1H244.9z"/>
		<path class="st0" d="M377.5,206.9h-42.4L316.9,129h-12.1v77.9h-38.3V3.1h65.1c14.4,0,25.5,5.5,33.5,16.5
			c7.9,11,11.9,25.5,11.9,43.5c0,11.7-1.5,22.1-4.4,31.1c-2.9,9-8.8,16.9-17.7,23.8L377.5,206.9z M304.8,85.4h16.3
			c4.8,0,8.7-1.6,11.6-4.9c2.9-3.3,4.4-8.1,4.4-14.5c0-13-4.9-19.6-14.7-19.6h-17.6V85.4z"/>
		<path class="st0" d="M463,129.1l35,3.4c-1.6,25-7.3,44.1-16.9,57.5c-9.6,13.3-21.5,20-35.6,20c-16.9,0-30.6-9.2-41-27.5
			c-10.4-18.3-15.6-43.6-15.6-75.8c0-31.9,4.9-57.7,14.8-77.3C413.5,9.8,427.3,0,444.9,0c16.5,0,29.2,7.5,38,22.4
			c8.9,14.9,13.9,34.7,15,59.4l-35.7,3.1c0-13.6-1.6-23.5-4.8-29.6c-3.2-6.1-7-9.1-11.3-9.1c-12.1,0-18.1,19.8-18.1,59.4
			c0,22.2,1.6,37.3,4.7,45.2c3.1,8,7.5,11.9,13.2,11.9C456.1,162.8,461.8,151.6,463,129.1z"/>
	</g>
</g>
</svg>
