<?xml version="1.0" encoding="utf-8"?>
<!-- Generator: Adobe Illustrator 25.2.0, SVG Export Plug-In . SVG Version: 6.00 Build 0)  -->
<svg version="1.1" id="Layer_1" xmlns="http://www.w3.org/2000/svg" xmlns:xlink="http://www.w3.org/1999/xlink" x="0px" y="0px"
	 viewBox="0 0 498 210" style="enable-background:new 0 0 498 210;" xml:space="preserve">
<style type="text/css">
	.st0{fill:#FFFFFF;}
</style>
<path class="st0" d="M177.3-56c-4,6.4-9.7,11.5-16.5,14.7c-7.3,3.7-16.1,5.5-26.4,5.5c-15.6,0-28.4-3.8-38.5-11.4
	S80.3-65.3,79.4-78.9h35.7c0.5,5.2,2.4,9.3,5.6,12.4c3.3,3.1,7.7,4.7,12.3,4.5c4.3,0,7.7-1.2,10.2-3.5c2.5-2.5,3.9-5.9,3.7-9.4
	c0.1-3.3-1.1-6.5-3.4-8.8c-2.4-2.5-5.3-4.4-8.5-5.8c-3.4-1.5-8.1-3.3-14.1-5.4c-7.4-2.4-14.5-5.3-21.5-8.7
	c-5.7-3-10.7-7.3-14.3-12.5c-4-5.6-6-12.8-6-21.7c0-8.2,2.1-15.4,6.3-21.4c4.4-6.2,10.4-10.9,17.4-13.8c8.1-3.3,16.7-5,25.4-4.8
	c15.4,0,27.7,3.7,36.8,11c9.1,7.3,14.2,17.4,15.4,30.2H144c-0.4-4.1-2.2-7.9-5-10.9c-2.7-2.7-6.3-4-10.9-4c-3.5-0.2-6.8,1-9.5,3.1
	c-2.4,2.1-3.6,5.2-3.6,9.2c-0.1,3.1,1.1,6.1,3.2,8.3c2.3,2.4,5.1,4.3,8.2,5.6c3.3,1.4,8,3.3,14.1,5.5c7.5,2.4,14.8,5.4,21.8,8.9
	c5.8,3.1,10.8,7.5,14.5,12.8c4.1,5.6,6.1,12.9,6.1,22C182.9-69.1,181-62.1,177.3-56z"/>
<path class="st0" d="M294.1-165.2c7.3,4.8,13.2,11.5,16.9,19.4c4.1,8.4,6.2,18.4,6.2,29.9c0,11.4-2.1,21.3-6.2,29.8
	c-4.1,8.5-9.8,15-16.9,19.5c-7.3,4.5-15.7,6.9-24.3,6.8c-8.4,0-15.6-1.9-21.6-5.7c-5.9-3.7-10.5-9.1-13.2-15.5v72h-33.6v-161.6h33.6
	v19.8c2.6-6.4,7.3-11.8,13.2-15.5c6-3.8,13.2-5.7,21.6-5.7C278.4-172.1,286.9-169.7,294.1-165.2z M241.7-135.4
	c-4.5,4.8-6.8,11.3-6.8,19.5c0,8.1,2.3,14.6,6.8,19.4s10.3,7.3,17.4,7.3c7.2,0,13-2.4,17.4-7.1c4.4-4.7,6.6-11.2,6.6-19.6
	c0-8.4-2.2-14.9-6.6-19.6c-4.4-4.7-10.2-7.1-17.4-7.1C252-142.5,246.2-140.1,241.7-135.4z"/>
<path class="st0" d="M337-214c3.7-3.3,8.5-5,14.5-5s10.9,1.7,14.5,5c3.6,3.2,5.6,7.8,5.5,12.6c0.1,4.8-1.9,9.3-5.5,12.5
	c-3.7,3.3-8.5,5-14.5,5s-10.9-1.7-14.5-5c-3.6-3.1-5.6-7.7-5.5-12.5C331.4-206.2,333.4-210.8,337-214z M368.3-170.6v109.4h-33.6
	v-109.4L368.3-170.6L368.3-170.6z"/>
<path class="st0" d="M445.2-185.5c-5.5,0-9.5,1.2-12,3.5s-3.9,6.1-4.1,11.4H449v28.2h-19.8v81.2h-33.6v-81.2h-13.2v-28.2h13.2v-1.2
	c0-13.6,4-24.1,11.9-31.5c7.9-7.4,19.4-11.1,34.5-11.1c3.1,0,5.5,0.1,7.1,0.2v28.8L445.2-185.5z"/>
<path class="st0" d="M489-170.6l26.3,67.1l24.5-67.1H577L508.7-9h-36.9l25.7-56.3l-46-105.3H489L489-170.6z"/>
<g>
	<path class="st0" d="M0,5.5h22.1c5.2,0,9.1,1.3,11.7,3.8c2.6,2.5,4.9,8,6.6,16.6c1.8,8.5,2.7,19.1,2.7,31.8
		c0,22.2-3.1,36.4-9.2,42.7c7.3,7.9,11,24.2,11,48.7c0,12.9-1,23.8-3,32.6c-2,8.9-4.4,14.8-7.4,17.7c-2.9,3-7.1,4.4-12.4,4.4H0V5.5z
		 M13.6,85.5h4.6c4.6,0,7.5-2.5,8.6-7.6c1.2-5,1.8-10.8,1.8-17.3c0-6-0.6-11.4-1.8-16.1c-1.2-4.7-3.7-7-7.6-7h-5.6V85.5z
		 M13.6,169.8h7c6.5,0,9.8-8.6,9.8-25.9c0-9.6-0.8-16.4-2.4-20.3c-1.6-3.9-4.1-5.9-7.4-5.9h-7V169.8z"/>
	<path class="st0" d="M54,5.5h15.8l16.6,123.3V5.5h11v198.4H84.7L65,60.2v143.6H54V5.5z"/>
	<path class="st0" d="M138.6,5.5h14.3l18.5,198.4h-14.5l-3.2-41h-18.2l-3.2,41h-13.1L138.6,5.5z M151,128.9l-6.5-81.3l-6.3,81.3H151
		z"/>
	<path class="st0" d="M199,5.5h13.1v198.4h-12.4v-24.3c-2,17.5-5.6,26.3-10.9,26.3c-5.1,0-9-6.9-11.5-20.6
		c-2.5-13.8-3.8-31.8-3.8-54.2c0-25.5,1.4-44.5,4.3-57.1c2.9-12.6,6.8-18.9,11.6-18.9c4.5,0,7.6,5.2,9.5,15.7V5.5z M199,118.5
		c0-14.4-0.5-24.1-1.5-29c-1-4.9-2.5-7.3-4.4-7.3c-2.3,0-3.8,3.4-4.6,10.2c-0.8,6.8-1.2,20.8-1.2,42.1c0,15.9,0.4,27,1.3,33.4
		c0.9,6.4,2.3,9.6,4.4,9.6c1.7,0,3.1-2.2,4.3-6.5c1.1-4.3,1.7-13.1,1.7-26.5V118.5z"/>
	<path class="st0" d="M216,57.1h12.9l6.6,86.5l6.7-86.5h11.1L240,203.8h-10.6L216,57.1z"/>
	<path class="st0" d="M293.5,130.5c0,51-6.5,76.5-19.4,76.5c-13,0-19.5-25.5-19.5-76.5c0-50.9,6.5-76.3,19.5-76.3
		C287,54.1,293.5,79.6,293.5,130.5z M279.7,130.5c0-18.7-0.4-31.4-1.3-38c-0.8-6.6-2.3-9.9-4.4-9.9c-2,0-3.5,3.1-4.3,9.4
		c-0.9,6.3-1.3,19.1-1.3,38.5c0,18,0.4,30.4,1.1,37.4c0.8,7,2.3,10.5,4.5,10.5c2.2,0,3.6-3.5,4.4-10.4S279.7,148.6,279.7,130.5z"/>
	<path class="st0" d="M337.1,111.1l-12.4,1.5c-0.2-9-0.7-15.8-1.4-20.4c-0.8-4.6-2-6.9-3.8-6.9c-4.5,0-6.7,14.4-6.7,43.3
		c0,16.8,0.5,28.5,1.6,35.2s2.7,10,4.9,10c3.3,0,5.2-9.1,5.5-27.2l12.4,2.5c-1.1,38.6-7.4,57.8-18.7,57.8c-6.2,0-10.9-6.4-14.1-19.1
		c-3.3-12.7-4.9-31.7-4.9-56.9c0-25,1.7-44,5.1-57.1s8.2-19.6,14.4-19.6C330,54.1,336.1,73.1,337.1,111.1z"/>
	<path class="st0" d="M357.1,103.7l-12.7-3.8c0.6-14.7,2.6-26.1,6.1-34c3.5-7.9,7.9-11.9,13.2-11.9c4.5,0,8.1,2.6,10.8,7.9
		c2.7,5.3,4.4,11.4,5.1,18.4c0.7,7,1.1,17.8,1.1,32.4v58.6c0,18.2,0.3,29.1,0.8,32.6h-12.4c-0.4-4-0.7-11.5-0.7-22.5
		c-2.9,17.1-7.3,25.6-13.1,25.6c-3.7,0-6.7-3.4-9.1-10.2s-3.5-16.8-3.5-29.9c0-16.4,1.8-29,5.3-38c3.5-9,10-14.3,19.3-16.1v-5.5
		c0-9.8-0.3-16.6-1-20.3c-0.6-3.8-1.9-5.7-3.8-5.7C359.3,81.2,357.4,88.7,357.1,103.7z M367.4,133.8c-3.9,1.4-6.7,4-8.3,7.9
		c-1.7,3.9-2.5,10.5-2.5,19.8c0,12.4,1.5,18.5,4.5,18.5c1.6,0,3.1-2.8,4.4-8.3c1.3-5.6,2-15.8,2-30.6V133.8z"/>
	<path class="st0" d="M392.6,12l13-1.3v46.4h8.8v32.3h-8.8v53.9c0,10,0.1,16.4,0.2,19.4c0.1,3,0.6,5.4,1.4,7.4c0.8,2,2.2,3,4.1,3
		c1,0,2.3-0.1,3.8-0.3v31.1c-3,2-5.7,3.1-8.2,3.1c-4,0-7.1-2.4-9.3-7.1c-2.1-4.7-3.5-10.7-4.1-17.9c-0.6-7.2-0.9-18.6-0.9-34.2V89.3
		h-5.3V57.1h5.3V12z"/>
	<path class="st0" d="M457.2,137.3h-25.1v8.1c0,13.1,0.6,21.9,1.7,26.4c1.2,4.4,2.7,6.7,4.6,6.7c4.1,0,6.3-8.3,6.8-25l11.9,2.3
		c-2.1,34.1-8.4,51.2-19,51.2c-6.5,0-11.4-6.7-14.8-20.2c-3.4-13.5-5.1-31.5-5.1-54.1c0-25.5,1.8-44.9,5.4-58.4
		c3.6-13.4,8.4-20.1,14.4-20.1c5.4,0,10,5.9,13.6,17.8C455.4,83.8,457.2,105.6,457.2,137.3z M444.6,113.6c0-1.7,0-3.1,0-4.1
		c0-18.9-2.1-28.3-6.2-28.3c-4.1,0-6.2,10.8-6.2,32.4H444.6z"/>
	<path class="st0" d="M496.6,92.4l-9.5,8.7c-1.3-13.3-3.6-19.9-7-19.9c-2.8,0-4.2,4.3-4.2,12.8c0,4.8,0.5,8.5,1.6,11
		c1,2.5,3.2,5.5,6.4,9c3.7,4,6.4,7.5,8.1,10.5c1.7,3,3.1,7.5,4.3,13.6c1.2,6.1,1.8,13,1.8,20.9c0,13.6-1.6,25-4.8,34.2
		c-3.2,9.2-7.6,13.8-13.4,13.8c-10.8,0-16.7-14.6-17.9-43.7l10.6-5.2c0.9,14.6,3.4,21.9,7.5,21.9c3.5,0,5.3-4.6,5.3-13.7
		c0-4.8-0.5-8.5-1.6-11c-1-2.5-3.1-5.2-6.1-8.1c-5.5-5.4-9.3-12-11.3-19.6c-2.1-7.7-3.1-16.5-3.1-26.6c0-14.1,1.6-25.5,4.9-34
		c3.2-8.5,7.3-12.8,12.2-12.8C488.9,54,494.3,66.8,496.6,92.4z"/>
</g>
</svg>
