<?xml version="1.0" encoding="utf-8"?>
<!-- Generator: Adobe Illustrator 25.2.0, SVG Export Plug-In . SVG Version: 6.00 Build 0)  -->
<svg version="1.1" id="Layer_4" xmlns="http://www.w3.org/2000/svg" xmlns:xlink="http://www.w3.org/1999/xlink" x="0px" y="0px"
	 viewBox="0 0 104 44" style="enable-background:new 0 0 104 44;" xml:space="preserve">
<style type="text/css">
	.st0{fill:#FFFFFF;}
	.st1{fill:#FAFAFA;}
</style>
<path class="st0" d="M216.7,10.7c-0.8,1.3-2,2.4-3.4,3.1c-1.7,0.8-3.6,1.2-5.5,1.2c-2.9,0.1-5.7-0.7-8-2.4c-2.1-1.6-3.4-4-3.4-6.7
	h7.5c0.1,1,0.5,1.9,1.2,2.6c0.7,0.6,1.6,1,2.6,0.9c0.8,0,1.5-0.2,2.1-0.7c0.5-0.5,0.8-1.2,0.8-2c0-0.7-0.2-1.4-0.7-1.8
	c-0.5-0.5-1.1-0.9-1.8-1.2s-1.7-0.7-3-1.1c-1.5-0.5-3-1.1-4.5-1.8c-1.2-0.6-2.2-1.5-3-2.6c-0.9-1.3-1.3-2.9-1.2-4.5
	c0-1.6,0.4-3.2,1.3-4.5c0.9-1.3,2.2-2.3,3.6-2.9c1.7-0.7,3.5-1,5.3-1c2.8-0.1,5.5,0.7,7.7,2.3c1.9,1.6,3.1,3.9,3.2,6.3h-7.6
	c-0.1-0.9-0.5-1.7-1-2.3c-0.6-0.6-1.4-0.9-2.3-0.8c-0.7,0-1.4,0.2-2,0.7c-0.5,0.5-0.8,1.2-0.8,1.9c0,0.6,0.2,1.3,0.7,1.7
	c0.5,0.5,1.1,0.9,1.7,1.2c0.7,0.3,1.7,0.7,3,1.1c1.6,0.5,3.1,1.1,4.6,1.9c1.2,0.6,2.2,1.6,3,2.7c0.9,1.4,1.3,3,1.3,4.6
	C217.9,7.9,217.5,9.4,216.7,10.7z"/>
<path class="st0" d="M241.1-7.2c1.5,1,2.8,2.4,3.5,4.1c0.9,2,1.3,4.1,1.3,6.3s-0.4,4.3-1.3,6.2c-0.8,1.7-2,3.1-3.5,4.1
	s-3.3,1.4-5.1,1.4c-1.6,0-3.2-0.4-4.5-1.2c-1.2-0.8-2.2-1.9-2.8-3.2v15.1h-7V-8.3h7v4.1c0.6-1.3,1.5-2.5,2.7-3.2
	c1.4-0.8,2.9-1.2,4.5-1.2C237.8-8.6,239.6-8.1,241.1-7.2z M230.1-0.9c-1,1.1-1.5,2.6-1.4,4.1c-0.1,1.5,0.4,2.9,1.4,4.1
	c2,2,5.2,2,7.3,0c1-1.1,1.5-2.6,1.4-4.1c0.1-1.5-0.4-3-1.4-4.1C235.4-2.9,232.2-2.9,230.1-0.9z"/>
<path class="st0" d="M250.1-17.4c1.8-1.4,4.3-1.4,6.1,0c0.8,0.7,1.2,1.6,1.1,2.7c0,1-0.4,1.9-1.1,2.6c-1.8,1.4-4.3,1.4-6.1,0
	c-0.7-0.7-1.2-1.6-1.1-2.6C248.9-15.8,249.3-16.7,250.1-17.4z M256.6-8.3v22.9h-7V-8.3H256.6L256.6-8.3z"/>
<path class="st0" d="M272.7-11.4c-0.9-0.1-1.8,0.2-2.5,0.7c-0.6,0.7-0.9,1.5-0.9,2.4h4.1v5.9h-4.1v17h-7v-17h-2.7v-5.9h2.7v-0.2
	c-0.2-2.5,0.7-4.9,2.5-6.6c1.7-1.5,4.1-2.3,7.2-2.3c0.7,0,1.1,0,1.5,0v6L272.7-11.4z"/>
<path class="st0" d="M281.8-8.3l5.5,14.1l5.1-14.1h7.8l-14.3,33.9h-7.7l5.4-11.8L274-8.3H281.8L281.8-8.3z"/>
<g>
	<g>
		<path class="st1" d="M300.2-154.4v-41.9h10.1c4.4,0,7.7,2.1,9.8,6.3c2.1,4.2,3.3,9,3.3,14.5c0,6.3-1.2,11.4-3.5,15.3
			c-2.3,3.9-5.4,5.9-9.1,5.9h-10.6V-154.4z M308.2-164h2.1c1.3,0,2.4-1,3.3-3.1c0.9-2.1,1.4-4.9,1.4-8.4c0-3.1-0.4-5.7-1.2-7.9
			c-0.8-2.2-2-3.3-3.5-3.3h-2.1V-164z"/>
		<path class="st1" d="M348.8-196.3v41.9h-8v-16.3h-6.1v16.3h-8v-41.9h8v15.4h6.1v-15.4H348.8z"/>
		<path class="st1" d="M376.5-154.4h-8.9l-3.8-16h-2.5v16h-8v-41.9h13.6c3,0,5.3,1.1,7,3.4c1.7,2.3,2.5,5.2,2.5,9
			c0,2.4-0.3,4.5-0.9,6.4c-0.6,1.9-1.8,3.5-3.7,4.9L376.5-154.4z M361.3-179.4h3.4c1,0,1.8-0.3,2.4-1c0.6-0.7,0.9-1.7,0.9-3
			c0-2.7-1-4-3.1-4h-3.7v8H361.3z"/>
		<path class="st1" d="M394.4-170.4l7.3,0.7c-0.3,5.1-1.5,9.1-3.5,11.8s-4.5,4.1-7.4,4.1c-3.5,0-6.4-1.9-8.6-5.7s-3.3-9-3.3-15.6
			c0-6.6,1-11.9,3.1-15.9s4.9-6,8.6-6c3.4,0,6.1,1.5,7.9,4.6c1.8,3.1,2.9,7.1,3.1,12.2l-7.5,0.6c0-2.8-0.3-4.8-1-6.1
			c-0.7-1.2-1.5-1.9-2.4-1.9c-2.5,0-3.8,4.1-3.8,12.2c0,4.6,0.3,7.7,1,9.3c0.7,1.6,1.6,2.5,2.8,2.5
			C393-163.4,394.1-165.7,394.4-170.4z"/>
	</g>
</g>
<g>
	<path class="st0" d="M1.6,0.1h4.5C7.2,0.1,8,0.4,8.6,1c0.5,0.5,1,1.8,1.4,3.6c0.4,1.9,0.6,4.2,0.6,6.9c0,4.8-0.6,7.9-1.9,9.3
		c1.5,1.7,2.3,5.3,2.3,10.6c0,2.8-0.2,5.2-0.6,7.1c-0.4,1.9-0.9,3.2-1.5,3.9c-0.6,0.6-1.5,1-2.6,1H1.6V0.1z M4.4,17.6h0.9
		c0.9,0,1.5-0.5,1.8-1.6c0.2-1.1,0.4-2.4,0.4-3.8c0-1.3-0.1-2.5-0.4-3.5c-0.2-1-0.8-1.5-1.6-1.5H4.4V17.6z M4.4,35.9h1.4
		c1.3,0,2-1.9,2-5.6c0-2.1-0.2-3.6-0.5-4.4C7,25,6.5,24.6,5.9,24.6H4.4V35.9z"/>
	<path class="st0" d="M12.7,0.1H16L19.4,27V0.1h2.3v43.2H19L15,12.1v31.3h-2.3V0.1z"/>
	<path class="st0" d="M30.1,0.1h2.9l3.8,43.2h-3l-0.7-8.9h-3.7l-0.7,8.9h-2.7L30.1,0.1z M32.7,27L31.3,9.3L30,27H32.7z"/>
	<path class="st0" d="M42.5,0.1h2.7v43.2h-2.6v-5.3c-0.4,3.8-1.2,5.7-2.2,5.7c-1.1,0-1.8-1.5-2.4-4.5c-0.5-3-0.8-6.9-0.8-11.8
		c0-5.5,0.3-9.7,0.9-12.4c0.6-2.7,1.4-4.1,2.4-4.1c0.9,0,1.6,1.1,2,3.4V0.1z M42.5,24.8c0-3.1-0.1-5.2-0.3-6.3
		c-0.2-1.1-0.5-1.6-0.9-1.6c-0.5,0-0.8,0.7-0.9,2.2c-0.2,1.5-0.2,4.5-0.2,9.2c0,3.5,0.1,5.9,0.3,7.3c0.2,1.4,0.5,2.1,0.9,2.1
		c0.4,0,0.6-0.5,0.9-1.4c0.2-0.9,0.3-2.9,0.3-5.8V24.8z"/>
	<path class="st0" d="M46,11.4h2.6L50,30.2l1.4-18.8h2.3l-2.7,32h-2.2L46,11.4z"/>
	<path class="st0" d="M62,27.4C62,38.5,60.6,44,58,44c-2.7,0-4-5.5-4-16.6c0-11.1,1.3-16.6,4-16.6C60.6,10.7,62,16.3,62,27.4z
		 M59.1,27.4c0-4.1-0.1-6.8-0.3-8.3c-0.2-1.4-0.5-2.2-0.9-2.2c-0.4,0-0.7,0.7-0.9,2c-0.2,1.4-0.3,4.2-0.3,8.4c0,3.9,0.1,6.6,0.2,8.1
		c0.2,1.5,0.5,2.3,0.9,2.3c0.4,0,0.8-0.8,0.9-2.3C59,34,59.1,31.3,59.1,27.4z"/>
	<path class="st0" d="M70.9,23.2l-2.6,0.3c0-2-0.1-3.4-0.3-4.4c-0.2-1-0.4-1.5-0.8-1.5c-0.9,0-1.4,3.1-1.4,9.4
		c0,3.6,0.1,6.2,0.3,7.7c0.2,1.5,0.6,2.2,1,2.2c0.7,0,1.1-2,1.1-5.9l2.6,0.5C70.7,39.8,69.4,44,67.1,44c-1.3,0-2.2-1.4-2.9-4.2
		c-0.7-2.8-1-6.9-1-12.4c0-5.4,0.4-9.6,1.1-12.4s1.7-4.3,3-4.3C69.5,10.7,70.7,14.9,70.9,23.2z"/>
	<path class="st0" d="M75,21.5l-2.6-0.8c0.1-3.2,0.5-5.7,1.3-7.4c0.7-1.7,1.6-2.6,2.7-2.6c0.9,0,1.7,0.6,2.2,1.7
		c0.6,1.2,0.9,2.5,1.1,4c0.1,1.5,0.2,3.9,0.2,7.1v12.8c0,4,0.1,6.3,0.2,7.1h-2.6c-0.1-0.9-0.1-2.5-0.1-4.9c-0.6,3.7-1.5,5.6-2.7,5.6
		c-0.8,0-1.4-0.7-1.9-2.2s-0.7-3.7-0.7-6.5c0-3.6,0.4-6.3,1.1-8.3c0.7-2,2-3.1,4-3.5v-1.2c0-2.1-0.1-3.6-0.2-4.4
		c-0.1-0.8-0.4-1.2-0.8-1.2C75.5,16.6,75.1,18.3,75,21.5z M77.2,28.1c-0.8,0.3-1.4,0.9-1.7,1.7c-0.3,0.9-0.5,2.3-0.5,4.3
		c0,2.7,0.3,4,0.9,4c0.3,0,0.6-0.6,0.9-1.8c0.3-1.2,0.4-3.4,0.4-6.7V28.1z"/>
	<path class="st0" d="M82.3,1.6L85,1.3v10.1h1.8v7H85v11.7c0,2.2,0,3.6,0,4.2c0,0.6,0.1,1.2,0.3,1.6c0.2,0.4,0.4,0.6,0.8,0.6
		c0.2,0,0.5,0,0.8-0.1v6.8c-0.6,0.4-1.2,0.7-1.7,0.7c-0.8,0-1.5-0.5-1.9-1.6c-0.4-1-0.7-2.3-0.8-3.9c-0.1-1.6-0.2-4-0.2-7.4V18.4
		h-1.1v-7h1.1V1.6z"/>
	<path class="st0" d="M95.6,28.8h-5.2v1.8c0,2.9,0.1,4.8,0.4,5.7c0.2,1,0.6,1.4,0.9,1.4c0.8,0,1.3-1.8,1.4-5.4l2.4,0.5
		C95.2,40.3,93.9,44,91.7,44c-1.3,0-2.4-1.5-3-4.4c-0.7-2.9-1-6.9-1-11.8c0-5.5,0.4-9.8,1.1-12.7c0.7-2.9,1.7-4.4,3-4.4
		c1.1,0,2,1.3,2.8,3.9C95.2,17.2,95.6,21.9,95.6,28.8z M93,23.7c0-0.4,0-0.7,0-0.9c0-4.1-0.4-6.2-1.3-6.2c-0.8,0-1.3,2.4-1.3,7.1H93
		z"/>
	<path class="st0" d="M103.7,19.1l-2,1.9c-0.3-2.9-0.7-4.3-1.4-4.3c-0.6,0-0.9,0.9-0.9,2.8c0,1.1,0.1,1.9,0.3,2.4
		c0.2,0.5,0.7,1.2,1.3,2c0.8,0.9,1.3,1.6,1.7,2.3c0.4,0.7,0.6,1.6,0.9,3c0.2,1.3,0.4,2.8,0.4,4.5c0,3-0.3,5.4-1,7.4
		c-0.7,2-1.6,3-2.7,3c-2.2,0-3.4-3.2-3.7-9.5l2.2-1.1c0.2,3.2,0.7,4.8,1.5,4.8c0.7,0,1.1-1,1.1-3c0-1.1-0.1-1.9-0.3-2.4
		c-0.2-0.5-0.6-1.1-1.2-1.8c-1.1-1.2-1.9-2.6-2.3-4.3c-0.4-1.7-0.6-3.6-0.6-5.8c0-3.1,0.3-5.5,1-7.4c0.7-1.9,1.5-2.8,2.5-2.8
		C102.1,10.7,103.2,13.5,103.7,19.1z"/>
</g>
</svg>
