<?xml version="1.0" encoding="utf-8"?>
<!-- Generator: Adobe Illustrator 25.2.0, SVG Export Plug-In . SVG Version: 6.00 Build 0)  -->
<svg version="1.1" id="Layer_4" xmlns="http://www.w3.org/2000/svg" xmlns:xlink="http://www.w3.org/1999/xlink" x="0px" y="0px"
	 viewBox="0 0 104 44" style="enable-background:new 0 0 104 44;" xml:space="preserve">
<style type="text/css">
	.st0{fill:#FFFFFF;}
	.st1{fill:#FAFAFA;}
</style>
<path class="st0" d="M216.7,10.7c-0.8,1.3-2,2.4-3.4,3.1c-1.7,0.8-3.6,1.2-5.5,1.2c-2.9,0.1-5.7-0.7-8-2.4c-2.1-1.6-3.4-4-3.4-6.7
	h7.5c0.1,1,0.5,1.9,1.2,2.6c0.7,0.6,1.6,1,2.6,0.9c0.8,0,1.5-0.2,2.1-0.7c0.5-0.5,0.8-1.2,0.8-2c0-0.7-0.2-1.4-0.7-1.8
	c-0.5-0.5-1.1-0.9-1.8-1.2c-0.7-0.3-1.7-0.7-3-1.1c-1.5-0.5-3-1.1-4.5-1.8c-1.2-0.6-2.2-1.5-3-2.6c-0.9-1.3-1.3-2.9-1.2-4.5
	c0-1.6,0.4-3.2,1.3-4.5c0.9-1.3,2.2-2.3,3.6-2.9c1.7-0.7,3.5-1,5.3-1c2.8-0.1,5.5,0.7,7.7,2.3c1.9,1.6,3.1,3.9,3.2,6.3h-7.6
	c-0.1-0.9-0.5-1.7-1-2.3c-0.6-0.6-1.4-0.9-2.3-0.8c-0.7,0-1.4,0.2-2,0.7c-0.5,0.5-0.8,1.2-0.8,1.9c0,0.6,0.2,1.3,0.7,1.7
	c0.5,0.5,1.1,0.9,1.7,1.2c0.7,0.3,1.7,0.7,3,1.1c1.6,0.5,3.1,1.1,4.6,1.9c1.2,0.6,2.2,1.6,3,2.7c0.9,1.4,1.3,3,1.3,4.6
	C217.9,7.9,217.5,9.4,216.7,10.7z"/>
<path class="st0" d="M241.1-7.2c1.5,1,2.8,2.4,3.5,4.1c0.9,2,1.3,4.1,1.3,6.3c0,2.2-0.4,4.3-1.3,6.2c-0.8,1.7-2,3.1-3.5,4.1
	c-1.5,1-3.3,1.4-5.1,1.4c-1.6,0-3.2-0.4-4.5-1.2c-1.2-0.8-2.2-1.9-2.8-3.2v15.1h-7V-8.3h7v4.1c0.6-1.3,1.5-2.5,2.7-3.2
	c1.4-0.8,2.9-1.2,4.5-1.2C237.8-8.6,239.6-8.1,241.1-7.2z M230.1-0.9c-1,1.1-1.5,2.6-1.4,4.1c-0.1,1.5,0.4,2.9,1.4,4.1
	c2,2,5.2,2,7.3,0c1-1.1,1.5-2.6,1.4-4.1c0.1-1.5-0.4-3-1.4-4.1C235.4-2.9,232.2-2.9,230.1-0.9z"/>
<path class="st0" d="M250.1-17.4c1.8-1.4,4.3-1.4,6.1,0c0.8,0.7,1.2,1.6,1.1,2.7c0,1-0.4,1.9-1.1,2.6c-1.8,1.4-4.3,1.4-6.1,0
	c-0.7-0.7-1.2-1.6-1.1-2.6C248.9-15.8,249.3-16.7,250.1-17.4z M256.6-8.3v22.9h-7V-8.3L256.6-8.3L256.6-8.3z"/>
<path class="st0" d="M272.7-11.4c-0.9-0.1-1.8,0.2-2.5,0.7c-0.6,0.7-0.9,1.5-0.9,2.4h4.1v5.9h-4.1v17h-7v-17h-2.7v-5.9h2.7v-0.2
	c-0.2-2.5,0.7-4.9,2.5-6.6c1.7-1.5,4.1-2.3,7.2-2.3c0.7,0,1.1,0,1.5,0v6L272.7-11.4z"/>
<path class="st0" d="M281.8-8.3l5.5,14.1l5.1-14.1h7.8l-14.3,33.9h-7.7l5.4-11.8L274-8.3L281.8-8.3L281.8-8.3z"/>
<g>
	<g>
		<path class="st1" d="M2.5,45.7V3.8h10.1c4.4,0,7.7,2.1,9.8,6.3s3.3,9,3.3,14.5c0,6.3-1.2,11.4-3.5,15.3c-2.3,3.9-5.4,5.9-9.1,5.9
			H2.5z M10.5,36.1h2.1c1.3,0,2.4-1,3.3-3.1c0.9-2.1,1.4-4.9,1.4-8.4c0-3.1-0.4-5.7-1.2-7.9s-2-3.3-3.5-3.3h-2.1V36.1z"/>
		<path class="st1" d="M51.1,3.8v41.9h-8V29.4H37v16.3h-8V3.8h8v15.4h6.1V3.8H51.1z"/>
		<path class="st1" d="M78.8,45.7h-8.9l-3.8-16h-2.5v16h-8V3.8h13.6c3,0,5.3,1.1,7,3.4c1.7,2.3,2.5,5.2,2.5,9c0,2.4-0.3,4.5-0.9,6.4
			c-0.6,1.9-1.8,3.5-3.7,4.9L78.8,45.7z M63.6,20.7H67c1,0,1.8-0.3,2.4-1c0.6-0.7,0.9-1.7,0.9-3c0-2.7-1-4-3.1-4h-3.7V20.7z"/>
		<path class="st1" d="M96.7,29.7l7.3,0.7c-0.3,5.1-1.5,9.1-3.5,11.8c-2,2.7-4.5,4.1-7.4,4.1c-3.5,0-6.4-1.9-8.6-5.7
			c-2.2-3.8-3.3-9-3.3-15.6c0-6.6,1-11.9,3.1-15.9c2.1-4,4.9-6,8.6-6c3.4,0,6.1,1.5,7.9,4.6c1.8,3.1,2.9,7.1,3.1,12.2l-7.5,0.6
			c0-2.8-0.3-4.8-1-6.1c-0.7-1.2-1.5-1.9-2.4-1.9c-2.5,0-3.8,4.1-3.8,12.2c0,4.6,0.3,7.7,1,9.3c0.7,1.6,1.6,2.5,2.8,2.5
			C95.3,36.7,96.4,34.4,96.7,29.7z"/>
	</g>
</g>
</svg>
